<svg xmlns="http://www.w3.org/2000/svg" viewBox="0 0 64 64" width="64" height="64" role="img" aria-label="Be_Ghost icon">
  <defs>
    <linearGradient id="iconGhost" x1="0" y1="0" x2="0" y2="1">
      <stop offset="0%" stop-color="#bae6fd"/>
      <stop offset="100%" stop-color="#7c3aed"/>
    </linearGradient>
    <linearGradient id="iconEye" x1="0" y1="0" x2="0" y2="1">
      <stop offset="0%" stop-color="#22d3ee"/>
      <stop offset="100%" stop-color="#7c3aed"/>
    </linearGradient>
  </defs>
  <rect x="0" y="0" width="64" height="64" rx="14" fill="#0b1220"/>
  <path d="M 32 12
           C 20 12, 12 21, 12 31
           L 12 49
           Q 15 52.5, 18 49
           Q 21 52.5, 24 49
           Q 27 52.5, 30 49
           Q 34 52.5, 37 49
           Q 40 52.5, 43 49
           Q 46 52.5, 49 49
           Q 50 50, 52 49
           L 52 31
           C 52 21, 44 12, 32 12 Z"
        fill="url(#iconGhost)" opacity="0.94"/>
  <ellipse cx="25.5" cy="29" rx="2.6" ry="3.6" fill="#0b1220"/>
  <ellipse cx="38.5" cy="29" rx="2.6" ry="3.6" fill="#0b1220"/>
  <ellipse cx="25.5" cy="29" rx="1.1" ry="1.6" fill="url(#iconEye)"/>
  <ellipse cx="38.5" cy="29" rx="1.1" ry="1.6" fill="url(#iconEye)"/>
</svg>
